<?xml version="1.0"?>
<svg xmlns="http://www.w3.org/2000/svg" xmlns:xlink="http://www.w3.org/1999/xlink" version="1.1" id="Capa_1" x="0px" y="0px" viewBox="0 0 57 57" style="enable-background:new 0 0 57 57;" xml:space="preserve" width="512px" height="512px" class=""><g><g>
	<path style="fill:#06AADF" d="M56,16.707c0-8.822-7.178-16-16-16H16c-8.822,0-16,7.178-16,16v14c0,8.485,6.644,15.429,15,15.949   v-3.949c0-0.553,0.448-1,1-1s1,0.447,1,1v4v1v8.586l1.359-1.359c5.306-5.305,12.359-8.227,19.86-8.227H40c8.822,0,16-7.178,16-16   V16.707z" data-original="#69BC45" class="active-path" data-old_color="#69BC45"/>
	<g>
		<circle style="fill:#CADB2C" cx="45" cy="42.723" r="12" data-original="#71C386" class="" data-old_color="#71C386"/>
		<path style="fill:#FFFFFF;" d="M51,41.723h-5v-5c0-0.552-0.448-1-1-1s-1,0.448-1,1v5h-5c-0.552,0-1,0.448-1,1s0.448,1,1,1h5v5    c0,0.552,0.448,1,1,1s1-0.448,1-1v-5h5c0.552,0,1-0.448,1-1S51.552,41.723,51,41.723z" data-original="#FFFFFF" class=""/>
	</g>
</g></g> </svg>
